<?xml version="1.0"?>
<svg xmlns="http://www.w3.org/2000/svg" xmlns:xlink="http://www.w3.org/1999/xlink" xmlns:svgjs="http://svgjs.com/svgjs" version="1.1" width="512" height="512" x="0" y="0" viewBox="0 0 512 512" style="enable-background:new 0 0 512 512" xml:space="preserve" class=""><circle r="256" cx="256" cy="256" fill="#70c2b6" shape="circle"/><g transform="matrix(0.7,0,0,0.7,76.79999885559084,76.79999427795411)"><g xmlns="http://www.w3.org/2000/svg"><path d="m256 120.5c-74.715 0-135.5 60.785-135.5 135.5s60.785 135.5 135.5 135.5 135.5-60.785 135.5-135.5-60.785-135.5-135.5-135.5zm0 241c-58.173 0-105.5-47.327-105.5-105.5s47.327-105.5 105.5-105.5 105.5 47.327 105.5 105.5-47.327 105.5-105.5 105.5z" fill="#000000" data-original="#000000" class=""/><path d="m282.382 219.28-38.741 41.62-14.396-14.396c-5.857-5.857-15.355-5.857-21.213 0-5.857 5.857-5.857 15.355 0 21.213l25.389 25.389c2.815 2.815 6.632 4.394 10.606 4.394.09 0 .18-.001.269-.002 4.071-.073 7.937-1.798 10.711-4.778l49.333-53c5.645-6.063 5.304-15.555-.759-21.199-6.063-5.645-15.555-5.305-21.199.759z" fill="#000000" data-original="#000000" class=""/><path d="m497 241h-19.939c-3.556-53.537-26.093-103.381-64.387-141.675-38.293-38.293-88.137-60.831-141.674-64.386v-19.939c0-8.284-6.716-15-15-15s-15 6.716-15 15v19.939c-53.537 3.556-103.381 26.094-141.675 64.387-38.293 38.293-60.831 88.137-64.386 141.674h-19.939c-8.284 0-15 6.716-15 15s6.716 15 15 15h19.939c3.556 53.537 26.093 103.381 64.387 141.675 38.294 38.293 88.138 60.831 141.675 64.386v19.939c0 8.284 6.716 15 15 15s15-6.716 15-15v-19.939c53.537-3.556 103.381-26.094 141.675-64.386 38.293-38.294 60.831-88.138 64.387-141.675h19.937c8.284 0 15-6.716 15-15s-6.716-15-15-15zm-226 205.986v-18.844c0-8.284-6.716-15-15-15s-15 6.716-15 15v18.844c-93.698-7.291-168.695-82.288-175.986-175.986h18.843c8.284 0 15-6.716 15-15s-6.716-15-15-15h-18.843c7.291-93.698 82.288-168.695 175.986-175.986v18.844c0 8.284 6.716 15 15 15s15-6.716 15-15v-18.844c93.698 7.291 168.695 82.288 175.986 175.986h-18.843c-8.284 0-15 6.716-15 15s6.716 15 15 15h18.843c-7.291 93.698-82.288 168.695-175.986 175.986z" fill="#000000" data-original="#000000" class=""/></g></g></svg>
