<?xml version="1.0"?>
<svg xmlns="http://www.w3.org/2000/svg" xmlns:xlink="http://www.w3.org/1999/xlink" xmlns:svgjs="http://svgjs.com/svgjs" version="1.1" width="512" height="512" x="0" y="0" viewBox="0 0 64 64" style="enable-background:new 0 0 512 512" xml:space="preserve" class=""><circle r="32" cx="32" cy="32" fill="#70c2b6" shape="circle"/><g transform="matrix(0.7,0,0,0.7,9.609976172447205,9.589023113250732)"><g xmlns="http://www.w3.org/2000/svg" id="Layer_20" data-name="Layer 20"><path d="m62 18a2 2 0 0 0 -2-2h-16.5a2 2 0 0 0 0 4h11.63l-16.59 16.4-15.13-10.78a2 2 0 0 0 -2.59.23l-18.25 18.75a2 2 0 0 0 2.86 2.79l17.06-17.52 15.1 10.76a2 2 0 0 0 2.57-.21l17.84-17.63v11.71a2 2 0 0 0 4 0z" fill="#000000" data-original="#000000" class=""/></g></g></svg>
