<?xml version="1.0"?>
<svg xmlns="http://www.w3.org/2000/svg" xmlns:xlink="http://www.w3.org/1999/xlink" xmlns:svgjs="http://svgjs.com/svgjs" version="1.1" width="512" height="512" x="0" y="0" viewBox="0 0 361.117 361.117" style="enable-background:new 0 0 512 512" xml:space="preserve" class=""><circle r="180.5585" cx="180.5585" cy="180.5585" fill="#70c2b6" shape="circle"/><g transform="matrix(0.7,0,0,0.7,54.1676207487064,54.167552661895755)">
<g xmlns="http://www.w3.org/2000/svg">
	<g>
		<path d="M359.568,327.246L191.511,21.818c-2.197-3.993-6.395-6.474-10.952-6.474c-4.558,0-8.754,2.481-10.952,6.474L1.549,327.246    c-2.131,3.872-2.058,8.582,0.191,12.388c2.249,3.805,6.34,6.139,10.76,6.139h336.117c4.421,0,8.512-2.334,10.761-6.139    C361.627,335.828,361.699,331.118,359.568,327.246z M33.646,320.772L180.559,53.773l146.913,266.999H33.646z" fill="#000000" data-original="#000000"/>
		<path d="M164.894,143.085v90.351c0,8.65,7.014,15.665,15.665,15.665c8.65,0,15.665-7.015,15.665-15.665v-90.351    c0-8.651-7.015-15.665-15.665-15.665C171.908,127.42,164.894,134.435,164.894,143.085z" fill="#000000" data-original="#000000"/>
		<path d="M180.559,265.364c-9.097,0-16.5,7.399-16.5,16.5c0,9.098,7.403,16.5,16.5,16.5c9.097,0,16.5-7.402,16.5-16.5    C197.059,272.764,189.655,265.364,180.559,265.364z" fill="#000000" data-original="#000000"/>
	</g>
</g>
<g xmlns="http://www.w3.org/2000/svg">
</g>
<g xmlns="http://www.w3.org/2000/svg">
</g>
<g xmlns="http://www.w3.org/2000/svg">
</g>
<g xmlns="http://www.w3.org/2000/svg">
</g>
<g xmlns="http://www.w3.org/2000/svg">
</g>
<g xmlns="http://www.w3.org/2000/svg">
</g>
<g xmlns="http://www.w3.org/2000/svg">
</g>
<g xmlns="http://www.w3.org/2000/svg">
</g>
<g xmlns="http://www.w3.org/2000/svg">
</g>
<g xmlns="http://www.w3.org/2000/svg">
</g>
<g xmlns="http://www.w3.org/2000/svg">
</g>
<g xmlns="http://www.w3.org/2000/svg">
</g>
<g xmlns="http://www.w3.org/2000/svg">
</g>
<g xmlns="http://www.w3.org/2000/svg">
</g>
<g xmlns="http://www.w3.org/2000/svg">
</g>
</g></svg>
