<?xml version="1.0"?>
<svg xmlns="http://www.w3.org/2000/svg" xmlns:xlink="http://www.w3.org/1999/xlink" xmlns:svgjs="http://svgjs.com/svgjs" version="1.1" width="512" height="512" x="0" y="0" viewBox="0 0 512 512" style="enable-background:new 0 0 512 512" xml:space="preserve" class=""><circle r="256" cx="256" cy="256" fill="#70c2b6" shape="circle"/><g transform="matrix(0.7,0,0,0.7,76.79999957084661,76.80000228881838)"><path xmlns="http://www.w3.org/2000/svg" d="m303.08 106.778c-9.198-5.29-18.373-10.622-27.558-15.937 5.011-11.769 10.193-23.901 14.903-36.053 1.809-4.667 1.189-9.911-1.656-14.028-5.777-8.359-16.871-8.848-24.343-1.739-19.664 18.708-39.084 36.995-58.654 55.537-3.775 3.577-5.637 8.435-5.108 13.328.524 4.846 3.34 9.143 7.725 11.79 9.345 5.641 18.761 10.955 28.098 16.291-4.649 10.96-10.372 24.247-14.92 36.003-2.887 7.461.421 15.743 7.693 19.264 5.712 2.766 12.296 2.23 18.299-3.483 19.121-18.197 39.473-37.334 58.671-55.548 3.818-3.623 5.673-8.513 5.088-13.417-.591-4.961-3.593-9.337-8.238-12.008zm-7.175 14.541c-20.531 19.477-57.956 55.517-59.934 56.488-.146-.057-.506-.19-.416-.426 5.19-13.555 11.633-28.21 16.922-40.74 1.486-3.521.897-8.275-3.771-10.962-10.84-6.238-21.797-12.344-32.565-18.846-.8-.483-.766-.71-.051-1.388 12.869-12.194 55.404-53.494 59.804-56.459.396.085.544.299.545.384-5.302 13.67-11.217 27.314-16.9 40.739-1.795 4.24-.293 8.652 3.739 10.98 10.779 6.222 21.533 12.493 32.325 18.692 1.099.632 1.138.746.302 1.538zm163.595 267.061c4.143 0 7.5-3.358 7.5-7.5v-165.157l27.074 13.073c3.887 1.874 8.402 1.63 12.073-.675 3.665-2.302 5.853-6.261 5.853-10.591v-44.89c0-4.777-2.781-9.197-7.068-11.254l-137.002-66.157c-8.718-53.92-55.587-95.229-111.93-95.229-62.524 0-113.392 50.867-113.392 113.392 0 12.487 2.034 24.506 5.78 35.75l-133.388 64.41v-39.338l106.967-51.654c3.729-1.801 5.293-6.285 3.492-10.015-1.8-3.729-6.282-5.294-10.016-3.493l-108.357 52.326c-4.305 2.065-7.086 6.486-7.086 11.262v44.89c0 4.33 2.188 8.29 5.853 10.591 3.673 2.307 8.19 2.548 12.079.673l27.068-13.071v251.277h-31.5c-7.444 0-13.5 6.056-13.5 13.5v18c0 7.444 6.056 13.5 13.5 13.5h485c7.444 0 13.5-6.056 13.5-13.5v-18c0-7.444-6.056-13.5-13.5-13.5h-31.5v-56.12c0-4.142-3.357-7.5-7.5-7.5s-7.5 3.358-7.5 7.5v56.12h-188.5v-55.316c28.037-3.687 49.754-27.721 49.754-56.747v-49.078c0-7.868-6.4-14.269-14.269-14.269h-12.985v-25.979c0-4.142-3.357-7.5-7.5-7.5s-7.5 3.358-7.5 7.5v25.979h-30v-25.979c0-4.142-3.357-7.5-7.5-7.5s-7.5 3.358-7.5 7.5v25.979h-12.985c-7.868 0-14.269 6.401-14.269 14.269v49.078c0 29.026 21.717 53.06 49.754 56.747v55.316h-188.5v-258.52l94.078-45.428c18.445 37.702 57.199 63.73 101.922 63.73s83.477-26.029 101.922-63.73l94.078 45.428v172.4c0 4.142 3.357 7.5 7.5 7.5zm-245.754-33.443v-48.347h84.508v48.347c0 23.299-18.955 42.254-42.254 42.254s-42.254-18.956-42.254-42.254zm283.254 127.063v15h-482v-15zm-241-270.217c-54.253 0-98.392-44.138-98.392-98.391 0-54.254 44.139-98.392 98.392-98.392s98.392 44.138 98.392 98.392c0 54.253-44.139 98.391-98.392 98.391zm107.612-62.641c3.745-11.245 5.78-23.264 5.78-35.75 0-.269-.008-.536-.01-.804l127.618 61.626v39.338z" fill="#000000" data-original="#000000"/></g></svg>
