<?xml version="1.0"?>
<svg xmlns="http://www.w3.org/2000/svg" xmlns:xlink="http://www.w3.org/1999/xlink" xmlns:svgjs="http://svgjs.com/svgjs" version="1.1" width="512" height="512" x="0" y="0" viewBox="0 0 512 512" style="enable-background:new 0 0 512 512" xml:space="preserve" class=""><circle r="256" cx="256" cy="256" fill="#84c0b6" shape="circle"/><g transform="matrix(0.7,0,0,0.7,76.79984893798829,76.80015292167664)"><g xmlns="http://www.w3.org/2000/svg"><path d="m420.716 191.822c4.143 0 7.5-3.358 7.5-7.5v-32.943c0-2.67-1.419-5.138-3.727-6.481l-103.241-60.11-59.174-81.688c-1.411-1.947-3.67-3.1-6.074-3.1s-4.663 1.153-6.074 3.1l-59.176 81.688-103.24 60.109c-2.308 1.343-3.727 3.811-3.727 6.481v32.943c0 4.142 3.357 7.5 7.5 7.5s7.5-3.358 7.5-7.5v-25.443h88.222v48.881l-99.495 57.93c-2.308 1.343-3.727 3.811-3.727 6.481v32.943c0 4.142 3.357 7.5 7.5 7.5s7.5-3.358 7.5-7.5v-25.443h88.222v51.319l-15.165 49.525c-1.213 3.96 1.015 8.154 4.975 9.367.732.224 1.472.331 2.199.331 3.209 0 6.18-2.077 7.168-5.306l12.159-39.709 46.986 46.413-87.737 86.668 19.952-65.16c1.213-3.96-1.015-8.154-4.975-9.367-3.962-1.213-8.154 1.015-9.367 4.976l-28.654 93.578c-1.006 3.285.349 6.833 3.287 8.612 1.204.729 2.547 1.085 3.882 1.084 1.924 0 3.83-.739 5.272-2.164l109.013-107.685 109.012 107.684c1.443 1.425 3.349 2.164 5.272 2.164 1.335 0 2.679-.355 3.882-1.084 2.939-1.779 4.293-5.327 3.287-8.612l-52.46-171.315v-51.319h88.223v25.443c0 4.142 3.357 7.5 7.5 7.5s7.5-3.358 7.5-7.5v-32.943c0-2.67-1.419-5.138-3.727-6.481l-99.496-57.93v-48.881h88.223v25.443c0 4.143 3.358 7.501 7.5 7.501zm-110.722 122.463-43.322-42.794 43.322-42.794zm-107.989-85.588 43.322 42.794-43.322 42.794zm11.459-9.765h85.071l-42.536 42.017zm96.53-24.766-43.322-42.794 43.322-42.794zm-11.459 9.766h-85.071l42.536-42.017zm-96.53-9.766v-85.587l43.322 42.794zm53.994 87.867 43.467 42.938h-86.935zm0-261.749 45.533 62.855h-49.971c-4.143 0-7.5 3.358-7.5 7.5s3.357 7.5 7.5 7.5h47.655l-43.217 42.69-43.217-42.69h8.78c4.143 0 7.5-3.358 7.5-7.5s-3.357-7.5-7.5-7.5h-11.096zm-136.928 123.594 67.934-39.554v39.554zm0 120.792 67.934-39.554v39.554zm95.325 75.301h83.208l-41.604 41.096zm52.276 51.639 46.986-46.413 40.752 133.081zm126.257-126.94h-67.935v-39.554zm-67.935-160.346 67.935 39.554h-67.935z" fill="#000000" data-original="#000000"/></g></g></svg>
