<?xml version="1.0"?>
<svg xmlns="http://www.w3.org/2000/svg" xmlns:xlink="http://www.w3.org/1999/xlink" xmlns:svgjs="http://svgjs.com/svgjs" version="1.1" width="512" height="512" x="0" y="0" viewBox="0 0 512 512" style="enable-background:new 0 0 512 512" xml:space="preserve" class=""><circle r="256" cx="256" cy="256" fill="#84c0b6" shape="circle"/><g transform="matrix(0.7,0,0,0.7,76.79998924772082,76.79999780058861)"><g xmlns="http://www.w3.org/2000/svg"><g><path d="m239.982 190.485c-2.929 2.929-2.928 7.678 0 10.606 2.93 2.928 7.678 2.929 10.607-.001 1.445-1.445 3.367-2.241 5.411-2.241s3.965.796 5.411 2.241c1.465 1.465 3.384 2.197 5.304 2.197 1.919 0 3.839-.732 5.303-2.196 2.929-2.929 2.929-7.678 0-10.606-4.279-4.279-9.967-6.636-16.018-6.636s-11.739 2.357-16.018 6.636z" fill="#000000" data-original="#000000"/><path d="m285.286 184.716c1.919 0 3.839-.732 5.303-2.197 2.929-2.929 2.929-7.677 0-10.606-19.072-19.072-50.106-19.072-69.179 0-2.929 2.93-2.929 7.678 0 10.606 2.928 2.93 7.677 2.929 10.606.001 13.225-13.225 34.741-13.225 47.966 0 1.465 1.463 3.385 2.196 5.304 2.196z" fill="#000000" data-original="#000000"/><path d="m303.857 166.144c1.919 0 3.839-.732 5.303-2.196 2.929-2.93 2.929-7.678 0-10.607-29.312-29.312-77.009-29.312-106.321 0-2.929 2.93-2.929 7.678 0 10.607 2.929 2.928 7.678 2.928 10.606 0 23.465-23.465 61.643-23.465 85.108 0 1.465 1.464 3.385 2.196 5.304 2.196z" fill="#000000" data-original="#000000"/><path d="m255.495 374.113c42.29 0 76.696-34.406 76.696-76.696s-34.406-76.696-76.696-76.696-76.696 34.406-76.696 76.696 34.406 76.696 76.696 76.696zm0-138.393c34.019 0 61.696 27.677 61.696 61.696s-27.677 61.696-61.696 61.696-61.696-27.677-61.696-61.696 27.677-61.696 61.696-61.696z" fill="#000000" data-original="#000000"/><path d="m256 344.313c26.416 0 47.907-21.491 47.907-47.907 0-14.014-6.11-27.282-16.765-36.404-3.146-2.694-7.88-2.327-10.575.819-2.694 3.146-2.327 7.881.819 10.575 7.322 6.269 11.52 15.384 11.52 25.01 0 18.145-14.762 32.907-32.907 32.907s-32.907-14.762-32.907-32.907c0-9.626 4.199-18.741 11.52-25.01 3.146-2.694 3.513-7.429.819-10.575s-7.428-3.512-10.575-.819c-10.654 9.122-16.765 22.391-16.765 36.404.002 26.416 21.493 47.907 47.909 47.907z" fill="#000000" data-original="#000000"/><path d="m256 297.845c4.142 0 7.5-3.357 7.5-7.5v-28.285c0-4.143-3.358-7.5-7.5-7.5s-7.5 3.357-7.5 7.5v28.285c0 4.143 3.358 7.5 7.5 7.5z" fill="#000000" data-original="#000000"/><path d="m509.231 203.713-248.5-202.032c-2.757-2.24-6.706-2.24-9.463 0l-248.499 202.032c-2.463 2.002-3.398 5.339-2.336 8.33s3.893 4.989 7.067 4.989h57.157l.128 154.132c.003 4.141 3.36 7.494 7.5 7.494h.006c4.142-.004 7.497-3.364 7.494-7.506l-.018-21.788h9.4c3.103 8.815 11.508 15.152 21.371 15.152 12.491 0 22.652-10.162 22.652-22.652 0-12.491-10.162-22.653-22.652-22.653-9.863 0-18.268 6.338-21.371 15.153h-9.412l-.024-29.447h43.782c3.103 8.815 11.509 15.152 21.371 15.152 12.491 0 22.652-10.162 22.652-22.652s-10.162-22.652-22.652-22.652c-9.862 0-18.268 6.338-21.371 15.152h-43.796l-.024-29.447h9.473c3.103 8.815 11.508 15.152 21.371 15.152 12.491 0 22.652-10.162 22.652-22.652s-10.162-22.652-22.652-22.652c-9.862 0-18.268 6.338-21.371 15.152h-9.486l-.027-32.341 176.347-141.465 176.349 141.467v32.339h-9.516c-3.103-8.815-11.508-15.152-21.371-15.152-12.491 0-22.652 10.162-22.652 22.652s10.162 22.652 22.652 22.652c9.862 0 18.268-6.338 21.371-15.152h9.516v29.447h-43.861c-3.103-8.815-11.509-15.152-21.371-15.152-12.491 0-22.652 10.162-22.652 22.652s10.162 22.652 22.652 22.652c9.862 0 18.268-6.338 21.371-15.152h43.861v29.447h-9.515c-3.103-8.815-11.508-15.153-21.371-15.153-12.491 0-22.652 10.162-22.652 22.653 0 12.49 10.162 22.652 22.652 22.652 9.862 0 18.268-6.338 21.371-15.152h9.516v21.794c0 4.143 3.358 7.5 7.5 7.5s7.5-3.357 7.5-7.5v-154.126h57.15c3.174 0 6.005-1.998 7.067-4.989s.127-6.328-2.336-8.33zm-398.694 130.498c4.22 0 7.652 3.434 7.652 7.653 0 4.22-3.433 7.652-7.652 7.652s-7.652-3.433-7.652-7.652c0-4.22 3.432-7.653 7.652-7.653zm34.346-44.447c4.22 0 7.652 3.433 7.652 7.652s-3.433 7.652-7.652 7.652c-4.22 0-7.653-3.433-7.653-7.652s3.433-7.652 7.653-7.652zm-34.346-44.447c4.22 0 7.652 3.433 7.652 7.652 0 4.22-3.433 7.652-7.652 7.652s-7.652-3.433-7.652-7.652 3.432-7.652 7.652-7.652zm290.926 15.305c-4.22 0-7.652-3.433-7.652-7.652 0-4.22 3.433-7.652 7.652-7.652s7.652 3.433 7.652 7.652-3.432 7.652-7.652 7.652zm-34.346 44.447c-4.22 0-7.652-3.433-7.652-7.652s3.433-7.652 7.652-7.652 7.653 3.433 7.653 7.652-3.433 7.652-7.653 7.652zm34.346 44.447c-4.22 0-7.652-3.433-7.652-7.652 0-4.22 3.433-7.653 7.652-7.653s7.652 3.434 7.652 7.653c0 4.22-3.432 7.652-7.652 7.652zm41.023-147.484-181.793-145.834c-2.741-2.199-6.645-2.199-9.386 0l-181.793 145.834h-40.899l227.385-184.866 227.385 184.866z" fill="#000000" data-original="#000000"/><path d="m458.032 448.511h-10.683v-42.295c0-4.143-3.358-7.5-7.5-7.5s-7.5 3.357-7.5 7.5v42.295h-352.698v-42.32c0-4.143-3.358-7.5-7.5-7.5s-7.5 3.357-7.5 7.5v42.32h-10.683c-4.142 0-7.5 3.357-7.5 7.5v48.488c0 4.143 3.358 7.5 7.5 7.5h116.211c4.142 0 7.5-3.357 7.5-7.5s-3.358-7.5-7.5-7.5h-108.711v-33.488h389.065v33.488h-245.299c-4.142 0-7.5 3.357-7.5 7.5s3.358 7.5 7.5 7.5h252.798c4.142 0 7.5-3.357 7.5-7.5v-48.488c0-4.142-3.358-7.5-7.5-7.5z" fill="#000000" data-original="#000000"/></g></g></g></svg>
