<?xml version="1.0"?>
<svg xmlns="http://www.w3.org/2000/svg" xmlns:xlink="http://www.w3.org/1999/xlink" xmlns:svgjs="http://svgjs.com/svgjs" version="1.1" width="512" height="512" x="0" y="0" viewBox="0 0 24 24" style="enable-background:new 0 0 512 512" xml:space="preserve" class=""><circle r="12" cx="12" cy="12" fill="#84c0b6" shape="circle" transform="matrix(1,0,0,1,0,0)"/><g transform="matrix(0.7,0,0,0.7,3.598649883270264,3.6001419782638564)"><path xmlns="http://www.w3.org/2000/svg" d="m19.5 19h-5c-.276 0-.5-.224-.5-.5s.224-.5.5-.5h5c.827 0 1.5-.673 1.5-1.5v-1c0-.276.224-.5.5-.5h.991c.276 0 .5-.224.5-.5v-6c0-.276-.224-.5-.5-.5h-.991c-.276 0-.5-.224-.5-.5v-1c0-.827-.673-1.5-1.5-1.5h-3c-.276 0-.5-.224-.5-.5s.224-.5.5-.5h3c1.378 0 2.5 1.122 2.5 2.5v.5h.491c.827 0 1.5.673 1.5 1.5v6c0 .827-.673 1.5-1.5 1.5h-.491v.5c0 1.378-1.122 2.5-2.5 2.5z" fill="#000000" data-original="#000000" class=""/><path xmlns="http://www.w3.org/2000/svg" d="m6.5 19h-4c-1.378 0-2.5-1.122-2.5-2.5v-10c0-1.378 1.122-2.5 2.5-2.5h7c.276 0 .5.224.5.5s-.224.5-.5.5h-7c-.827 0-1.5.673-1.5 1.5v10c0 .827.673 1.5 1.5 1.5h4c.276 0 .5.224.5.5s-.224.5-.5.5z" fill="#000000" data-original="#000000" class=""/><path xmlns="http://www.w3.org/2000/svg" d="m9.303 21c-.079 0-.16-.019-.234-.058-.215-.114-.317-.367-.24-.599l2.094-6.343h-3.923c-.186 0-.356-.103-.443-.268-.086-.165-.074-.364.032-.517l6.926-10c.136-.196.395-.266.611-.174.219.096.34.333.289.566l-1.408 6.393h3.993c.19 0 .364.108.449.279.084.171.063.375-.053.526l-7.697 10c-.097.127-.245.195-.396.195zm-1.348-8h3.66c.161 0 .311.077.405.207s.12.297.069.45l-1.39 4.209 5.285-6.866h-3.599c-.151 0-.295-.069-.39-.187s-.131-.273-.099-.421l.996-4.521z" fill="#000000" data-original="#000000" class=""/></g></svg>
