<?xml version="1.0"?>
<svg xmlns="http://www.w3.org/2000/svg" xmlns:xlink="http://www.w3.org/1999/xlink" xmlns:svgjs="http://svgjs.com/svgjs" version="1.1" width="512" height="512" x="0" y="0" viewBox="0 0 8.4666667 8.4666667" style="enable-background:new 0 0 512 512" xml:space="preserve" class=""><circle r="4.23333335" cx="4.23333335" cy="4.23333335" fill="#70c2b6" shape="circle"/><g transform="matrix(0.7,0,0,0.7,1.2700000701539063,1.270000043059082)"><g xmlns="http://www.w3.org/2000/svg" id="layer2"><path id="path2184" d="m7.2775678.26990497.0052 1.02897423c-1.0961413-1.1373935-2.7588298-1.5850738-4.3040644-1.10546348-1.7685838.54893491-2.97658123 2.18608778-2.97858322 4.03734478-.00939985.3606811.53573781.3628144.52915891.0021002.00179997-1.6217053 1.05589381-3.0524847 2.60548501-3.53344813 1.4112694-.43803143 2.9291002.0073 3.8844585 1.09874483l-1.2593356.0067c-.3531146.0019-.3510437.5316692.00209.529733l1.7905605-.0098c.1400979-.0007675.2648903-.1168472.2640626-.2677095l-.00981-1.78920714c-.0008237-.15023123-.1216532-.2718077-.2694227-.26777632-.1477693.0040314-.2605344.12442378-.2597996.26980753zm.6598975 3.96395683c-.0017461 1.6217083-1.0558935 3.0524885-2.6054857 3.5334518-1.4112694.4380305-2.9290992-.0073006-3.8844576-1.0987446l1.2593348-.0067c.3531146-.00191.3510404-.5316704-.00209-.529734-.5968539.0033-1.6652275.0091-1.79056161.0098-.14009785.0007677-.26488995.1168474-.26406199.2677097l.0098 1.7892069c.00082583.1502342.12165448.2718146.27181417.2677143.14531483-.0040004.25807503-.1243936.25734503-.2697764-.0017-.3429915-.0052-1.0289754-.0052-1.0289754 1.0961438 1.1373887 2.7588301 1.5850698 4.3040636 1.1054587 1.7685807-.5489341 2.9765789-2.1860861 2.9785806-4.0373439.004699-.1803399-.1292588-.2708026-.2635069-.2713291-.1342483-.0005266-.2688642.0888908-.2655744.269262z" font-variant-ligatures="normal" font-variant-position="normal" font-variant-caps="normal" font-variant-numeric="normal" font-variant-alternates="normal" font-feature-settings="normal" text-indent="0" text-align="start" text-decoration-line="none" text-decoration-style="solid" text-decoration-color="rgb(0,0,0)" text-transform="none" text-orientation="mixed" white-space="normal" shape-padding="0" isolation="auto" mix-blend-mode="normal" solid-color="rgb(0,0,0)" solid-opacity="1" vector-effect="none" fill="#000000" data-original="#000000" class=""/></g></g></svg>
