<?xml version="1.0"?>
<svg xmlns="http://www.w3.org/2000/svg" xmlns:xlink="http://www.w3.org/1999/xlink" xmlns:svgjs="http://svgjs.com/svgjs" version="1.1" width="512" height="512" x="0" y="0" viewBox="0 0 32 32" style="enable-background:new 0 0 512 512" xml:space="preserve" class=""><rect width="32" height="32" rx="20" ry="20" fill="#84c0b6" shape="rounded"/><g transform="matrix(0.7,0,0,0.7,4.799999713897705,4.80000057220459)"><g xmlns="http://www.w3.org/2000/svg" id="Layer_16" data-name="Layer 16"><path d="M26.98926,11.39551A.50138.50138,0,0,0,26.5,11H24.95325A4.58239,4.58239,0,0,0,25,10.5a4.5,4.5,0,0,0-9,0,4.57015,4.57015,0,0,0,.05017.5H5.5a.50138.50138,0,0,0-.48926.39551l-3,14A.50048.50048,0,0,0,2.5,26H13v1h-.5A2.50232,2.50232,0,0,0,10,29.5a.49971.49971,0,0,0,.5.5h11a.49971.49971,0,0,0,.5-.5A2.50232,2.50232,0,0,0,19.5,27H19V26H29.5a.50048.50048,0,0,0,.48926-.60449ZM5.047,16h5.305L9.6377,21H3.97546Zm6.31506,0H15.5v5H10.64771ZM16.5,16h4.13794l.71436,5H16.5Zm3.56641-4,.42865,3H16.5V12Zm1.5816,4h5.305l1.07153,5H22.3623Zm5.09064-1H21.50519l-.42859-3h5.0191ZM17,10.5a3.5,3.5,0,0,1,7,0,3.573,3.573,0,0,1-.04657.5h-6.903A3.54247,3.54247,0,0,1,17,10.5ZM15.5,12v3H11.50494l.42865-3ZM5.9043,12h5.0191l-.42859,3H5.26135ZM3.76111,22h5.7337l-.42853,3H3.11816Zm6.74371,0H15.5v3H10.07617Zm10.40924,7H11.08594A1.50151,1.50151,0,0,1,12.5,28h7A1.50151,1.50151,0,0,1,20.91406,29ZM18,27H14V26h4Zm.5-2h-2V22h4.99518l.42865,3Zm4.43372,0-.42853-3h5.7337l.64294,3Z" fill="#000000" data-original="#000000"/><path d="M20.5,5a.49971.49971,0,0,0,.5-.5v-2a.5.5,0,0,0-1,0v2A.49971.49971,0,0,0,20.5,5Z" fill="#000000" data-original="#000000"/><path d="M24.34277,6.3916a.49983.49983,0,0,0,.38379-.17969l1.28027-1.53613a.49989.49989,0,1,0-.76758-.64062L23.959,5.57129a.5.5,0,0,0,.38379.82031Z" fill="#000000" data-original="#000000"/><path d="M25.91016,9.51074a.50036.50036,0,0,0,.49121.41016.57025.57025,0,0,0,.09082-.00781l1.9668-.35937a.50032.50032,0,0,0-.17969-.98437l-1.9668.35938A.50144.50144,0,0,0,25.91016,9.51074Z" fill="#000000" data-original="#000000"/><path d="M12.5166,9.77832l1.97656.30371a.52285.52285,0,0,0,.07715.00586.5.5,0,0,0,.0752-.99414L12.66895,8.79a.5.5,0,1,0-.15234.98828Z" fill="#000000" data-original="#000000"/><path d="M16.1543,6.333a.50022.50022,0,0,0,.75-.66211l-1.32324-1.499a.50022.50022,0,1,0-.75.66211Z" fill="#000000" data-original="#000000"/></g></g></svg>
