<svg xmlns="http://www.w3.org/2000/svg" xmlns:xlink="http://www.w3.org/1999/xlink" version="1.1" id="Layer_1" x="0px" y="0px" style="enable-background:new 0 0 303.3 128.9;" xml:space="preserve" viewBox="43 42.9 217.4 43">
<style type="text/css">
	.st0{fill:#FFFFFF;}
	.st1{fill:#FFC629;}
	.st2{fill:#2D2A26;}
</style>
<g>
	<g>
		<path class="st0" d="M59.6,74.5h-3.6L47.3,62h-0.1l0,12.5H43l0-19.9h3.7l8.6,12.5h0.2l0-12.5h4.2L59.6,74.5z"/>
	</g>
</g>
<g>
	<path class="st0" d="M111.8,54.6h4.6l3.3,13.8h0.2l3.6-13.8h3.9l3.6,13.8h0.2l3.3-13.8l4.6,0l-5.7,19.9h-4.1l-3.8-13h-0.2l-3.8,13   h-4.1L111.8,54.6z"/>
</g>
<g>
	<path class="st0" d="M158.4,60.8c-0.6-2.8-2.9-4.2-5.6-4.2c-3.6,0-6.4,2.8-6.4,8c0,5.2,2.8,8,6.4,8c2.6,0,5-1.5,5.6-4.2h2.4   c-0.7,4.1-4,6.5-8,6.5c-5.1,0-8.8-3.9-8.8-10.2c0-6.3,3.7-10.2,8.8-10.2c4,0,7.3,2.4,8,6.5H158.4z"/>
	<path class="st0" d="M162.4,74.5l7.3-19.9l2.5,0l7.3,19.9H177l-2-5.6h-8l-2,5.6H162.4z M174.2,66.7l-3.2-9h-0.2l-3.2,9H174.2z"/>
	<path class="st0" d="M188.7,56.5c-2.6,0-4.4,1.4-4.4,3.3c0,2.1,2.4,2.9,3.8,3.3l2,0.5c2.1,0.5,5.6,1.7,5.6,5.5   c0,3.2-2.6,5.7-7.2,5.7c-4.3,0-6.9-2.2-7.1-5.5h2.5c0.2,2.3,2.3,3.3,4.7,3.3c2.8,0,4.9-1.4,4.9-3.6c0-2-1.9-2.7-4-3.3l-2.4-0.7   c-3.1-0.9-5-2.5-5-5.2c0-3.3,3-5.6,6.8-5.6c3.8,0,6.6,2.2,6.7,5.2h-2.3C192.9,57.6,191.1,56.5,188.7,56.5z"/>
	<path class="st0" d="M198.1,54.6l14.9,0v2.1h-6.2l0,17.7h-2.4l0-17.7h-6.2L198.1,54.6z"/>
	<path class="st0" d="M218.8,74.5h-2.4l0-19.9h2.4L218.8,74.5z"/>
	<path class="st0" d="M239.4,74.5h-2.3l-10.8-15.6h-0.2l0,15.6h-2.4l0-19.9h2.3l10.9,15.6h0.2l0-15.6h2.4L239.4,74.5z"/>
	<path class="st0" d="M252.1,56.6c-3.5,0-6.4,2.8-6.4,8c0,5.2,2.8,8,6.5,8c3.4,0,5.7-2.3,5.8-5.8h-5.2v-2.1h7.6v2.1   c0,4.9-3.4,8.1-8.1,8.1c-5.3,0-8.9-3.9-8.9-10.2c0-6.3,3.6-10.2,8.7-10.2c4.2,0,7.4,2.6,8.2,6.5h-2.5   C256.9,58.2,255,56.6,252.1,56.6z"/>
</g>
<g>
	<path class="st1" d="M86.4,85.9c11.9,0,21.5-9.6,21.5-21.5c0-11.9-9.6-21.5-21.5-21.5s-21.5,9.6-21.5,21.5   C64.9,76.3,74.5,85.9,86.4,85.9"/>
</g>
</svg>