<?xml version="1.0" encoding="UTF-8"?>
<svg id="Layer_1" data-name="Layer 1" xmlns="http://www.w3.org/2000/svg" viewBox="0 0 670.97 224.52">
  <defs>
    <style>
      .cls-1 {
        fill: #f8ad00;
      }

      .cls-2 {
        fill: #ffd785;
      }

      .cls-3 {
        fill: #fb0;
      }

      .cls-4 {
        fill: #ffcc2d;
      }

      .cls-5 {
        fill: #ffc323;
      }

      .cls-6 {
        fill: #14120e;
      }
    </style>
  </defs>
  <g>
    <circle cx="112" cy="112" r="112" fill="#FFC425"/>
    <path class="cls-1" d="m19.49,49.04l80.03-19.73-4.35-28.01C63.77,6.1,36.65,23.9,19.49,49.04Z"/>
    <path class="cls-3" d="m112.26,0c-5.82,0-11.52.45-17.1,1.3l4.35,28.01,65.52-16.15C149.3,4.76,131.34,0,112.26,0Z"/>
    <path class="cls-1" d="m0,112.26c0,36.29,17.22,68.54,43.93,89.07L7.83,71C2.78,83.77,0,97.69,0,112.26Z"/>
    <path class="cls-4" d="m14.43,57.19c-2.5,4.43-4.71,9.04-6.6,13.81l36.1,130.32c6.89,5.3,14.42,9.81,22.45,13.41l21.86-21.78L14.43,57.19Z"/>
    <path class="cls-3" d="m88.24,192.95l-21.86,21.78c12,5.38,25.12,8.72,38.91,9.57l-17.05-31.35Z"/>
    <path class="cls-3" d="m99.51,29.31L19.49,49.04c-.9,1.33-1.78,2.67-2.63,4.04l88.4,13.24-5.75-37Z"/>
    <path class="cls-4" d="m165.72,75.37l9.76-55.87c-3.36-2.29-6.84-4.41-10.45-6.34l-65.52,16.15,5.75,37,60.46,9.05Z"/>
    <path class="cls-4" d="m175.48,19.5l-9.76,55.87,35.22,5.27,13.95-13.9c-8.52-19.18-22.26-35.53-39.41-47.24Z"/>
    <path class="cls-4" d="m214.89,66.74l-13.95,13.9,19.87,2.98c-1.53-5.82-3.52-11.46-5.93-16.87Z"/>
    <path class="cls-5" d="m105.26,66.31l-88.4-13.24c-.84,1.35-1.65,2.72-2.43,4.11l73.81,135.76,31.78-31.67-14.75-94.97Z"/>
    <path class="cls-3" d="m88.24,192.95l17.05,31.35c2.31.14,4.64.22,6.98.22,5.91,0,11.7-.46,17.36-1.34l-9.61-61.89-31.78,31.67Z"/>
    <path class="cls-3" d="m120.01,161.29l9.61,61.89c3.61-.56,7.17-1.3,10.66-2.2l16.9-96.73-37.17,37.04Z"/>
    <polygon class="cls-2" points="165.72 75.37 105.26 66.31 120.01 161.29 157.19 124.25 165.72 75.37"/>
    <polygon class="cls-5" points="165.72 75.37 157.19 124.25 200.95 80.64 165.72 75.37"/>
    <path class="cls-5" d="m200.95,80.64l-43.76,43.61-16.9,96.73c4.23-1.09,8.37-2.41,12.4-3.96l71.6-112.07c-.48-7.32-1.66-14.45-3.47-21.33l-19.87-2.98Z"/>
    <path class="cls-1" d="m152.69,217.02c42.02-16.23,71.84-57.01,71.84-104.76,0-2.46-.08-4.9-.24-7.31l-71.6,112.07Z"/>
  </g>
  <g>
    <path class="cls-6" d="m348.71,105.61l-9.32-9.23c-4.71,2.49-10.06,3.88-15.88,3.88-19.2,0-33.87-14.95-33.87-33.41s14.68-33.41,33.87-33.41,33.78,14.95,33.78,33.41c0,8.77-3.32,16.8-8.86,22.71l8.21,8.12-7.94,7.94Zm-9.6-25.29c2.58-3.69,4.06-8.31,4.06-13.48,0-12.28-8.31-21.88-19.66-21.88s-19.75,9.6-19.75,21.88,8.31,21.88,19.75,21.88c2.4,0,4.8-.46,6.83-1.38l-7.94-7.85,8.03-7.85,8.68,8.68Z"/>
    <path class="cls-6" d="m426.11,70.75c0,18.93-7.23,29.43-24.44,29.43s-24.09-10.5-24.09-29.43v-31.84h12.3v33.47c0,11.53,4.65,17.04,11.96,17.04s11.96-5.51,11.96-17.04v-33.47h12.3v31.84Z"/>
    <path class="cls-6" d="m484.01,99.15l-3.87-11.19h-21.42l-4.04,11.19h-13.68l24.61-60.23h9.98l22.63,60.23h-14.2Zm-21.68-21.25h14.37l-6.97-20.22h-.09l-7.31,20.22Z"/>
    <path class="cls-6" d="m534.08,38.92c9.72,0,22.03,4.99,22.03,18.07,0,9.38-6.37,14.54-13.08,16.78,5.33,7.49,14.28,19.79,18.41,25.38h-15.49l-16.52-24.01h-2.15v24.01h-12.3v-60.23h19.1Zm-6.8,25.81h4.82c6.19,0,10.84-2.24,10.84-7.49,0-4.73-3.7-7.92-9.21-7.92h-6.45v15.4Z"/>
    <path class="cls-6" d="m598.7,49.33v49.82h-12.3v-49.82h-14.28v-10.41h40.87v10.41h-14.28Z"/>
    <path class="cls-6" d="m643.44,88.74h27.53v10.41h-44.14v-6.54l25.38-43.28h-24.69v-10.41h41.39v6.28l-25.47,43.54Z"/>
  </g>
  <g>
    <path class="cls-6" d="m311.44,132.19c-7.4,0-12.13,3.53-12.13,9.38,0,6.71,8,8.78,15.92,11.7,7.83,2.93,15.66,6.71,15.66,16.78,0,13.51-11.79,18.59-20.39,18.59s-14.97-2.41-21.17-8.52l4.82-4.3c5.94,6.02,10.5,6.97,16.43,6.97,6.88,0,13.51-3.61,13.51-11.7,0-7.23-6.88-9.9-14.2-12.65-8.26-3.1-17.12-6.2-17.12-16,0-11.01,8.17-16.09,17.64-16.09,6.88,0,12.82,1.89,17.9,5.77l-4.22,4.65c-2.58-2.58-7.92-4.56-12.65-4.56Z"/>
    <path class="cls-6" d="m381.57,188.64c-17.38,0-30.72-13.94-30.72-31.15s13.34-31.15,30.72-31.15,30.72,13.94,30.72,31.15-13.34,31.15-30.72,31.15Zm0-56.45c-13.77,0-23.92,11.1-23.92,25.3s10.15,25.3,23.92,25.3,23.92-11.1,23.92-25.3-10.15-25.3-23.92-25.3Z"/>
    <path class="cls-6" d="m435.34,187.61v-60.23h6.37v54.38h26.85v5.85h-33.21Z"/>
    <path class="cls-6" d="m504.68,127.37h5.77l20.99,60.23h-7.14l-4.56-13.68h-26.5l-5.16,13.68h-6.63l23.23-60.23Zm-9.29,40.7h22.46l-10.5-31.75h-.09l-11.87,31.75Z"/>
    <path class="cls-6" d="m556.99,187.61h-6.37v-60.23h17.29c9.03,0,19.96,4.73,19.96,16.95,0,8.86-5.68,15.23-15.66,16.86,6.54,8.95,16.26,22.03,19.53,26.42h-7.92l-18.93-26.24h-7.92v26.24Zm0-32.09h8.78c9.38,0,15.32-3.18,15.32-11.01,0-6.8-5.51-11.27-13.6-11.27h-10.5v22.29Z"/>
  </g>
</svg>
