<?xml version="1.0" encoding="UTF-8"?>
<svg id="Layer_1" data-name="Layer 1" xmlns="http://www.w3.org/2000/svg" viewBox="0 0 327.13 47.12">
  <defs>
    <style>
      .cls-1 {
        fill: #f8ad00;
      }

      .cls-2 {
        fill: #fff;
      }

      .cls-3 {
        fill: #ffd785;
      }

      .cls-4 {
        fill: #fb0;
      }

      .cls-5 {
        fill: #ffcc2d;
      }

      .cls-6 {
        fill: #ffc323;
      }
    </style>
  </defs>
  <g>
    <path class="cls-2" d="m82.89,36.16l-2.98-2.95c-1.5.8-3.21,1.24-5.07,1.24-6.14,0-10.83-4.78-10.83-10.68s4.69-10.68,10.83-10.68,10.79,4.78,10.79,10.68c0,2.8-1.06,5.37-2.83,7.26l2.62,2.6-2.54,2.54Zm-3.07-8.08c.83-1.18,1.3-2.65,1.3-4.31,0-3.92-2.66-6.99-6.28-6.99s-6.31,3.07-6.31,6.99,2.65,6.99,6.31,6.99c.77,0,1.53-.15,2.18-.44l-2.54-2.51,2.57-2.51,2.77,2.77Z"/>
    <path class="cls-2" d="m110.58,25.02c0,6.05-2.31,9.4-7.81,9.4s-7.7-3.35-7.7-9.4v-10.17h3.93v10.7c0,3.68,1.49,5.44,3.82,5.44s3.82-1.76,3.82-5.44v-10.7h3.93v10.17Z"/>
    <path class="cls-2" d="m131.83,34.1l-1.24-3.57h-6.85l-1.29,3.57h-4.37l7.86-19.25h3.19l7.23,19.25h-4.54Zm-6.93-6.79h4.59l-2.23-6.46h-.03l-2.34,6.46Z"/>
    <path class="cls-2" d="m150.58,14.85c3.11,0,7.04,1.59,7.04,5.77,0,3-2.04,4.65-4.18,5.36,1.71,2.39,4.56,6.32,5.88,8.11h-4.95l-5.28-7.67h-.69v7.67h-3.93V14.85h6.1Zm-2.17,8.25h1.54c1.98,0,3.46-.71,3.46-2.39,0-1.51-1.18-2.53-2.94-2.53h-2.06v4.92Z"/>
    <path class="cls-2" d="m173.98,18.18v15.92h-3.93v-15.92h-4.56v-3.33h13.06v3.33h-4.56Z"/>
    <path class="cls-2" d="m191.03,30.77h8.8v3.33h-14.11v-2.09l8.11-13.83h-7.89v-3.33h13.23v2.01l-8.14,13.91Z"/>
    <path class="cls-2" d="m226.55,16.39c-2.37,0-3.88,1.13-3.88,3,0,2.14,2.56,2.8,5.09,3.74,2.5.94,5,2.15,5,5.36,0,4.32-3.77,5.94-6.52,5.94s-4.78-.77-6.76-2.72l1.54-1.38c1.9,1.92,3.35,2.23,5.25,2.23,2.2,0,4.32-1.15,4.32-3.74,0-2.31-2.2-3.16-4.54-4.04-2.64-.99-5.47-1.98-5.47-5.11,0-3.52,2.61-5.14,5.64-5.14,2.2,0,4.1.6,5.72,1.84l-1.35,1.48c-.83-.82-2.53-1.46-4.04-1.46Z"/>
    <path class="cls-2" d="m251.71,34.43c-5.55,0-9.82-4.45-9.82-9.95s4.26-9.95,9.82-9.95,9.82,4.45,9.82,9.95-4.26,9.95-9.82,9.95Zm0-18.04c-4.4,0-7.64,3.55-7.64,8.08s3.25,8.08,7.64,8.08,7.64-3.55,7.64-8.08-3.24-8.08-7.64-8.08Z"/>
    <path class="cls-2" d="m271.65,34.1V14.85h2.04v17.38h8.58v1.87h-10.61Z"/>
    <path class="cls-2" d="m296.56,14.85h1.84l6.71,19.25h-2.28l-1.46-4.37h-8.47l-1.65,4.37h-2.12l7.42-19.25Zm-2.97,13.01h7.18l-3.35-10.15h-.03l-3.79,10.15Z"/>
    <path class="cls-2" d="m316.02,34.1h-2.04V14.85h5.53c2.89,0,6.38,1.51,6.38,5.42,0,2.83-1.82,4.87-5,5.39,2.09,2.86,5.2,7.04,6.24,8.44h-2.53l-6.05-8.39h-2.53v8.39Zm0-10.26h2.8c3,0,4.89-1.02,4.89-3.52,0-2.17-1.76-3.6-4.34-3.6h-3.35v7.12Z"/>
  </g>
  <g>
    <path class="cls-1" d="m4.09,10.29l16.79-4.14-.91-5.88C13.38,1.28,7.69,5.02,4.09,10.29Z"/>
    <path class="cls-4" d="m23.56,0c-1.22,0-2.42.09-3.59.27l.91,5.88,13.75-3.39c-3.3-1.76-7.07-2.76-11.07-2.76Z"/>
    <path class="cls-1" d="m0,23.56c0,7.62,3.61,14.38,9.22,18.69L1.64,14.9C.58,17.58,0,20.5,0,23.56Z"/>
    <path class="cls-5" d="m3.03,12c-.52.93-.99,1.9-1.38,2.9l7.58,27.35c1.45,1.11,3.03,2.06,4.71,2.81l4.59-4.57L3.03,12Z"/>
    <path class="cls-4" d="m18.52,40.49l-4.59,4.57c2.52,1.13,5.27,1.83,8.17,2.01l-3.58-6.58Z"/>
    <path class="cls-4" d="m20.88,6.15L4.09,10.29c-.19.28-.37.56-.55.85l18.55,2.78-1.21-7.77Z"/>
    <path class="cls-5" d="m34.78,15.82l2.05-11.72c-.7-.48-1.44-.93-2.19-1.33l-13.75,3.39,1.21,7.77,12.69,1.9Z"/>
    <path class="cls-5" d="m36.83,4.09l-2.05,11.72,7.39,1.11,2.93-2.92c-1.79-4.03-4.67-7.46-8.27-9.91Z"/>
    <path class="cls-5" d="m45.1,14.01l-2.93,2.92,4.17.62c-.32-1.22-.74-2.41-1.24-3.54Z"/>
    <path class="cls-6" d="m22.09,13.92L3.54,11.14c-.18.28-.35.57-.51.86l15.49,28.49,6.67-6.65-3.1-19.93Z"/>
    <path class="cls-4" d="m18.52,40.49l3.58,6.58c.48.03.97.05,1.47.05,1.24,0,2.46-.1,3.64-.28l-2.02-12.99-6.67,6.65Z"/>
    <path class="cls-4" d="m25.19,33.85l2.02,12.99c.76-.12,1.5-.27,2.24-.46l3.55-20.3-7.8,7.77Z"/>
    <polygon class="cls-3" points="34.78 15.82 22.09 13.92 25.19 33.85 32.99 26.07 34.78 15.82"/>
    <polygon class="cls-6" points="34.78 15.82 32.99 26.07 42.17 16.92 34.78 15.82"/>
    <path class="cls-6" d="m42.17,16.92l-9.18,9.15-3.55,20.3c.89-.23,1.76-.5,2.6-.83l15.03-23.52c-.1-1.54-.35-3.03-.73-4.48l-4.17-.62Z"/>
    <path class="cls-1" d="m32.04,45.54c8.82-3.41,15.08-11.96,15.08-21.98,0-.52-.02-1.03-.05-1.54l-15.03,23.52Z"/>
  </g>
</svg>