<svg width="304" height="48" viewBox="0 0 304 48" fill="none" xmlns="http://www.w3.org/2000/svg">
<path d="M32.0912 35.9896L28.9201 32.922C27.3238 33.7539 25.5041 34.2114 23.5248 34.2114C16.9909 34.2114 12 29.2409 12 23.1057C12 16.9705 16.9909 12 23.5248 12C30.0587 12 35.007 16.9705 35.007 23.1057C35.007 26.0173 33.879 28.6898 31.9955 30.6551L34.7835 33.3588L32.0806 36L32.0912 35.9896ZM28.8243 27.5875C29.7075 26.3605 30.2077 24.8319 30.2077 23.1057C30.2077 19.0295 27.377 15.8371 23.5248 15.8371C19.6725 15.8371 16.81 19.0295 16.81 23.1057C16.81 27.182 19.63 30.3744 23.5248 30.3744C24.3442 30.3744 25.1529 30.2184 25.8446 29.9168L23.1417 27.3068L25.8766 24.6967L28.8243 27.5771V27.5875Z" fill="white"/>
<path d="M61.5578 24.4055C61.5578 30.6966 59.0996 34.1802 53.2467 34.1802C47.3939 34.1802 45.0527 30.6966 45.0527 24.4055V13.8301H49.2349V24.9566C49.2349 28.7833 50.8205 30.6134 53.2999 30.6134C55.7794 30.6134 57.365 28.7833 57.365 24.9566V13.8301H61.5471V24.4055H61.5578Z" fill="white"/>
<path d="M84.1702 33.8474L82.8507 30.1351H75.5612L74.1884 33.8474H69.5381L77.9023 13.8301H81.297L88.9908 33.8474H84.1596H84.1702ZM76.7956 26.7868H81.6801L79.307 20.0692H79.2751L76.785 26.7868H76.7956Z" fill="white"/>
<path d="M104.124 13.8301C107.434 13.8301 111.616 15.4835 111.616 19.8301C111.616 22.9497 109.445 24.6654 107.168 25.4037C108.987 27.889 112.02 31.9757 113.425 33.837H108.157L102.538 25.8613H101.804V33.837H97.6221V13.8301H104.113H104.124ZM101.815 22.4089H103.454C105.561 22.4089 107.136 21.6706 107.136 19.9237C107.136 18.3535 105.88 17.2928 104.007 17.2928H101.815V22.4089Z" fill="white"/>
<path d="M129.025 17.2928V33.8474H124.843V17.2928H119.99V13.8301H133.888V17.2928H129.036H129.025Z" fill="white"/>
<path d="M147.169 30.3847H156.534V33.8474H141.519V31.6741L150.149 17.2928H141.753V13.8301H155.831V15.9202L147.169 30.3847Z" fill="white"/>
<path d="M184.968 15.4322C182.446 15.4322 180.839 16.6072 180.839 18.5518C180.839 20.7771 183.563 21.4634 186.256 22.4409C188.916 23.4183 191.576 24.6766 191.576 28.0145C191.576 32.5067 187.564 34.1913 184.638 34.1913C181.712 34.1913 179.551 33.3906 177.444 31.3629L179.083 29.9279C181.105 31.9244 182.648 32.2468 184.67 32.2468C187.011 32.2468 189.267 31.0509 189.267 28.3577C189.267 25.9556 186.926 25.0717 184.436 24.1566C181.626 23.1272 178.615 22.0977 178.615 18.8429C178.615 15.1826 181.392 13.498 184.617 13.498C186.958 13.498 188.98 14.122 190.704 15.4114L189.267 16.9504C188.384 16.0977 186.575 15.4322 184.968 15.4322Z" fill="white"/>
<path d="M211.741 34.1913C205.835 34.1913 201.291 29.5639 201.291 23.8447C201.291 18.1254 205.824 13.498 211.741 13.498C217.658 13.498 222.191 18.1254 222.191 23.8447C222.191 29.5639 217.658 34.1913 211.741 34.1913ZM211.741 15.4322C207.059 15.4322 203.611 19.1237 203.611 23.8343C203.611 28.5448 207.069 32.2364 211.741 32.2364C216.413 32.2364 219.871 28.5448 219.871 23.8343C219.871 19.1237 216.423 15.4322 211.741 15.4322Z" fill="white"/>
<path d="M232.961 33.8474V13.8301H235.132V31.9029H244.262V33.8474H232.972H232.961Z" fill="white"/>
<path d="M259.469 13.8301H261.427L268.568 33.8474H266.141L264.588 29.3032H255.574L253.819 33.8474H251.562L259.459 13.8301H259.469ZM256.309 27.3587H263.949L260.384 16.8041H260.352L256.319 27.3587H256.309Z" fill="white"/>
<path d="M280.177 33.8474H278.006V13.8301H283.891C286.966 13.8301 290.68 15.4003 290.68 19.4661C290.68 22.4089 288.743 24.5303 285.359 25.071C287.583 28.045 290.893 32.3916 291.999 33.8474H289.307L282.869 25.123H280.177V33.8474ZM280.177 23.1784H283.156C286.349 23.1784 288.36 22.1178 288.36 19.5181C288.36 17.2616 286.487 15.7746 283.742 15.7746H280.177V23.1784Z" fill="white"/>
</svg>
