<svg width="48" height="48" viewBox="0 0 48 48" fill="none" xmlns="http://www.w3.org/2000/svg">
<g clip-path="url(#clip0_1505_243)">
<path d="M4.16699 10.4846L21.2758 6.26656L20.3459 0.27832C13.6332 1.30451 7.83546 5.10996 4.16699 10.4846Z" fill="#F8AD00"/>
<path d="M23.9994 0C22.7552 0 21.5366 0.0962052 20.3438 0.277926L21.2737 6.26617L35.2806 2.81347C31.9178 1.01764 28.0783 0 23.9994 0Z" fill="#FFBB00"/>
<path d="M0 23.9997C0 31.7581 3.68129 38.6528 9.39135 43.0419L1.6739 15.1787C0.594308 17.9088 0 20.8848 0 23.9997Z" fill="#F8AD00"/>
<path d="M3.08478 12.2266C2.55033 13.1736 2.07787 14.1592 1.67383 15.179L9.39128 43.04C10.8642 44.1731 12.474 45.1373 14.1906 45.9069L18.8639 41.2506L3.08478 12.2266Z" fill="#FFCC2D"/>
<path d="M18.8637 41.251L14.1904 45.9073C16.7558 47.0575 19.5606 47.7716 22.5086 47.9533L18.8637 41.251Z" fill="#FFBB00"/>
<path d="M21.2734 6.2666L4.16673 10.4847C3.97433 10.769 3.78621 11.0555 3.60449 11.3484L22.5026 14.1789L21.2734 6.26874V6.2666Z" fill="#FFBB00"/>
<path d="M35.4278 16.1133L37.5143 4.1689C36.796 3.67932 36.052 3.22609 35.2803 2.81348L21.2734 6.26618L22.5027 14.1764L35.4278 16.1112V16.1133Z" fill="#FFCC2D"/>
<path d="M37.5142 4.16895L35.4277 16.1134L42.9571 17.24L45.9393 14.2684C44.1179 10.1679 41.1806 6.67242 37.5142 4.16895Z" fill="#FFCC2D"/>
<path d="M45.9393 14.2686L42.957 17.2402L47.2048 17.8773C46.8778 16.6331 46.4523 15.4273 45.9371 14.2707L45.9393 14.2686Z" fill="#FFCC2D"/>
<path d="M22.5026 14.1763L3.60445 11.3457C3.42487 11.6343 3.25171 11.9272 3.08496 12.2244L18.8641 41.2484L25.658 34.4777L22.5047 14.1741L22.5026 14.1763Z" fill="#FFC323"/>
<path d="M18.8643 41.251L22.5092 47.9533C23.003 47.9832 23.5011 48.0003 24.0014 48.0003C25.2648 48.0003 26.5026 47.902 27.7126 47.7138L25.6582 34.4824L18.8643 41.2531V41.251Z" fill="#FFBB00"/>
<path d="M25.6553 34.4822L27.7097 47.7137C28.4814 47.5939 29.2425 47.4357 29.9886 47.2433L33.6015 26.5635L25.6553 34.4822Z" fill="#FFBB00"/>
<path d="M35.4281 16.1137L22.5029 14.1768L25.6562 34.4825L33.6045 26.5637L35.4281 16.1137Z" fill="#FFD785"/>
<path d="M35.428 16.1133L33.6045 26.5633L42.9595 17.24L35.428 16.1133Z" fill="#FFC323"/>
<path d="M42.9591 17.2402L33.6041 26.5636L29.9912 47.2434C30.8955 47.0104 31.7806 46.7282 32.6421 46.3968L47.9487 22.4375C47.8461 20.8725 47.5939 19.3482 47.2069 17.8773L42.9591 17.2402Z" fill="#FFC323"/>
<path d="M32.6416 46.3969C41.6246 42.9271 47.9995 34.2087 47.9995 24.0003C47.9995 23.4744 47.9824 22.9527 47.9482 22.4375L32.6416 46.3969Z" fill="#F8AD00"/>
</g>
<defs>
<clipPath id="clip0_1505_243">
<rect width="48" height="48" fill="white"/>
</clipPath>
</defs>
</svg>
