<svg width="331" height="48" viewBox="0 0 331 48" fill="none" xmlns="http://www.w3.org/2000/svg">
<path d="M27.436 25.33L35.256 32.946L32.672 35.224L24.478 27.608L27.436 25.33ZM24.512 10.336C26.9373 10.336 28.9887 10.88 30.666 11.968C32.366 13.0333 33.6467 14.4727 34.508 16.286C35.392 18.0767 35.834 20.0713 35.834 22.27C35.834 24.6727 35.358 26.7807 34.406 28.594C33.454 30.4073 32.1393 31.8353 30.462 32.878C28.7847 33.898 26.8013 34.4307 24.512 34.476C22.1093 34.476 20.058 33.9433 18.358 32.878C16.6807 31.8127 15.4 30.3733 14.516 28.56C13.632 26.7467 13.19 24.7407 13.19 22.542C13.19 20.162 13.666 18.0653 14.618 16.252C15.57 14.4387 16.896 13.0107 18.596 11.968C20.296 10.9253 22.268 10.3813 24.512 10.336ZM17.78 22.508C17.78 24.0947 18.052 25.5227 18.596 26.792C19.14 28.0387 19.9107 29.0133 20.908 29.716C21.928 30.4187 23.118 30.77 24.478 30.77C25.7473 30.77 26.8807 30.464 27.878 29.852C28.898 29.2173 29.714 28.2767 30.326 27.03C30.9607 25.7833 31.278 24.208 31.278 22.304C31.278 20.6947 31.006 19.278 30.462 18.054C29.9407 16.83 29.17 15.8667 28.15 15.164C27.1527 14.4387 25.9627 14.076 24.58 14.076C23.3787 14.076 22.2567 14.4273 21.214 15.13C20.1713 15.8327 19.3327 16.8073 18.698 18.054C18.086 19.3007 17.78 20.7853 17.78 22.508ZM46.7924 10.88V25.262C46.7924 26.5313 47.0077 27.574 47.4384 28.39C47.869 29.206 48.4697 29.8067 49.2404 30.192C50.011 30.5773 50.8837 30.77 51.8584 30.77C52.8557 30.77 53.7284 30.566 54.4764 30.158C55.247 29.75 55.8477 29.138 56.2784 28.322C56.709 27.506 56.9244 26.486 56.9244 25.262V10.88H61.3784V25.602C61.3784 27.2567 60.9817 28.7527 60.1884 30.09C59.4177 31.4047 58.3184 32.4473 56.8904 33.218C55.485 33.966 53.8077 34.3513 51.8584 34.374C49.9317 34.3967 48.2544 34.0227 46.8264 33.252C45.3984 32.4813 44.299 31.4273 43.5284 30.09C42.7577 28.7527 42.3724 27.2567 42.3724 25.602L42.3384 10.88H46.7924ZM80.859 24.956L77.765 16.932L74.739 24.956H80.859ZM75.997 10.88H79.737L88.713 33.728L84.293 34.34L82.219 28.56H73.447L71.407 34H66.987L75.997 10.88ZM101.775 14.552H99.0551V21.624H101.843C102.727 21.624 103.509 21.4993 104.189 21.25C104.869 21.0007 105.402 20.638 105.787 20.162C106.195 19.6633 106.399 19.006 106.399 18.19C106.399 17.3287 106.206 16.6373 105.821 16.116C105.458 15.572 104.937 15.1753 104.257 14.926C103.577 14.6767 102.75 14.552 101.775 14.552ZM94.6691 10.88H101.877C103.577 10.88 105.118 11.1407 106.501 11.662C107.884 12.1607 108.983 12.9313 109.799 13.974C110.638 15.0167 111.057 16.354 111.057 17.986C111.057 19.414 110.683 20.6493 109.935 21.692C109.21 22.712 108.28 23.494 107.147 24.038L112.791 34H108.099L103.203 25.228C102.84 25.2507 102.478 25.262 102.115 25.262C101.775 25.2393 101.435 25.228 101.095 25.228H99.0551V34H94.6691V10.88ZM134.889 10.88L135.603 14.348H127.681V34H123.227V14.348H116.189V10.88H134.889ZM157.255 30.566L157.765 34H139.677L139.167 30.566L152.359 14.348H140.663L140.119 10.88H156.983L157.493 14.348L143.927 30.566H157.255ZM188.458 34H174.552V10.88H187.166L187.472 12.92H177.204V21.182H185.228L185.534 23.222H177.204V31.892H188.152L188.458 34ZM200.407 34H197.755V10.88H199.863L211.117 26.52L212.511 28.798V10.88H215.231V34H213.089L201.291 17.374L200.407 15.878V34ZM240.908 34H227.002V10.88H239.616L239.922 12.92H229.654V21.182H237.678L237.984 23.222H229.654V31.892H240.602L240.908 34ZM256.496 13.158H252.858V22.338H256.224C257.312 22.338 258.309 22.1907 259.216 21.896C260.122 21.6013 260.859 21.1253 261.426 20.468C261.992 19.788 262.276 18.87 262.276 17.714C262.276 16.5127 262.026 15.5833 261.528 14.926C261.029 14.2687 260.349 13.8153 259.488 13.566C258.626 13.294 257.629 13.158 256.496 13.158ZM250.206 10.88H256.496C258.105 10.88 259.556 11.1067 260.848 11.56C262.14 11.9907 263.16 12.7047 263.908 13.702C264.656 14.6767 265.03 15.98 265.03 17.612C265.007 19.176 264.61 20.4567 263.84 21.454C263.092 22.4287 262.128 23.1653 260.95 23.664L266.832 34H263.874L258.57 24.378C258.252 24.4233 257.856 24.4573 257.38 24.48C256.926 24.5027 256.507 24.514 256.122 24.514H252.858V34H250.206V10.88ZM284.471 24.14L284.709 22.1H292.121V32.878C291.645 33.1727 291.044 33.4447 290.319 33.694C289.593 33.9433 288.823 34.136 288.007 34.272C287.213 34.408 286.431 34.476 285.661 34.476C283.326 34.476 281.275 33.9547 279.507 32.912C277.761 31.8467 276.413 30.4187 275.461 28.628C274.531 26.8373 274.067 24.82 274.067 22.576C274.067 20.7627 274.361 19.1193 274.951 17.646C275.563 16.15 276.401 14.858 277.467 13.77C278.555 12.682 279.824 11.8547 281.275 11.288C282.725 10.6987 284.289 10.404 285.967 10.404C286.443 10.404 287.043 10.4493 287.769 10.54C288.494 10.6307 289.219 10.778 289.945 10.982C290.693 11.1633 291.305 11.4127 291.781 11.73L290.931 13.702C290.432 13.498 289.956 13.328 289.503 13.192C289.049 13.0333 288.551 12.92 288.007 12.852C287.463 12.7613 286.805 12.716 286.035 12.716C284.856 12.716 283.723 12.9427 282.635 13.396C281.547 13.8267 280.561 14.4613 279.677 15.3C278.815 16.116 278.135 17.136 277.637 18.36C277.138 19.584 276.889 20.978 276.889 22.542C276.889 24.4913 277.263 26.1913 278.011 27.642C278.781 29.0927 279.824 30.2147 281.139 31.008C282.476 31.7787 283.972 32.164 285.627 32.164C286.42 32.164 287.145 32.096 287.803 31.96C288.46 31.824 289.049 31.6653 289.571 31.484V24.14H284.471ZM310.037 34H307.351V24.718L299.701 11.424L302.217 10.336L308.711 22.066L315.273 10.88H318.163L310.071 24.582L310.037 34Z" fill="white"/>
</svg>
