<?xml version="1.0" encoding="UTF-8"?><svg id="Layer_2" xmlns="http://www.w3.org/2000/svg" viewBox="0 0 217.41 42.95"><defs><style>.cls-1{fill:#ffd053;}.cls-2{fill:#2d2a26;}</style></defs><g id="Layer_1-2"><path class="cls-2" d="M16.62,31.55h-3.63L4.35,19.04h-.15v12.51H0V11.67H3.69l8.58,12.5h.17V11.67h4.18V31.55Z"/><path class="cls-2" d="M68.84,11.67h4.59l3.29,13.81h.17l3.63-13.81h3.93l3.62,13.84h.17l3.29-13.84h4.59l-5.69,19.88h-4.1l-3.78-12.99h-.16l-3.78,12.99h-4.1l-5.69-19.88Z"/><g><path class="cls-2" d="M115.46,17.89c-.58-2.76-2.95-4.23-5.59-4.23-3.61,0-6.44,2.79-6.44,7.96s2.83,7.96,6.44,7.96c2.64,0,5.01-1.48,5.59-4.23h2.41c-.74,4.08-4,6.48-8,6.48-5.08,0-8.77-3.92-8.77-10.21s3.69-10.21,8.77-10.21c4,0,7.26,2.41,8,6.48h-2.41Z"/><path class="cls-2" d="M119.45,31.55l7.3-19.88h2.48l7.3,19.88h-2.52l-2-5.63h-8.04l-2,5.63h-2.52Zm11.8-7.76l-3.18-8.97h-.16l-3.18,8.97h6.52Z"/><path class="cls-2" d="M145.7,13.54c-2.64,0-4.39,1.4-4.39,3.3,0,2.13,2.37,2.91,3.84,3.3l2.02,.54c2.06,.54,5.59,1.75,5.59,5.47,0,3.22-2.6,5.75-7.18,5.75-4.27,0-6.91-2.21-7.14-5.47h2.48c.19,2.25,2.29,3.3,4.66,3.3,2.76,0,4.85-1.44,4.85-3.61,0-1.98-1.86-2.72-3.96-3.3l-2.45-.7c-3.11-.89-5.05-2.48-5.05-5.16,0-3.34,2.99-5.55,6.79-5.55s6.61,2.24,6.72,5.24h-2.33c-.23-1.96-2.06-3.11-4.46-3.11Z"/><path class="cls-2" d="M155.15,11.67h14.91v2.13h-6.25V31.55h-2.41V13.81h-6.25v-2.13Z"/><path class="cls-2" d="M175.82,31.55h-2.41V11.67h2.41V31.55Z"/><path class="cls-2" d="M196.45,31.55h-2.33l-10.83-15.6h-.19v15.6h-2.41V11.67h2.33l10.87,15.64h.19V11.67h2.37V31.55Z"/><path class="cls-2" d="M209.14,13.65c-3.53,0-6.37,2.79-6.37,7.96s2.83,7.96,6.52,7.96c3.37,0,5.72-2.25,5.78-5.82h-5.24v-2.13h7.57v2.13c0,4.92-3.38,8.07-8.11,8.07-5.28,0-8.85-3.92-8.85-10.21s3.6-10.21,8.7-10.21c4.19,0,7.41,2.64,8.15,6.48h-2.48c-.84-2.61-2.79-4.23-5.67-4.23Z"/></g><path class="cls-1" d="M43.42,42.95c11.86,0,21.48-9.61,21.48-21.48C64.9,9.62,55.28,0,43.42,0S21.95,9.61,21.95,21.48c0,11.86,9.62,21.48,21.48,21.48"/></g></svg>
